<svg width="14" height="12" viewBox="0 0 14 12" fill="none" xmlns="http://www.w3.org/2000/svg">
<path d="M14 5.9836C13.9951 5.45772 13.7832 4.95494 13.41 4.5842L9.12 0.28603C8.93264 0.0998587 8.67919 -0.00463867 8.415 -0.00463867C8.15081 -0.00463867 7.89736 0.0998587 7.71 0.28603C7.61627 0.378954 7.54188 0.489507 7.49111 0.611315C7.44034 0.733122 7.4142 0.863772 7.4142 0.995727C7.4142 1.12768 7.44034 1.25833 7.49111 1.38014C7.54188 1.50195 7.61627 1.6125 7.71 1.70542L11 4.98403H1C0.734784 4.98403 0.48043 5.08934 0.292893 5.27679C0.105357 5.46425 0 5.7185 0 5.9836C0 6.2487 0.105357 6.50295 0.292893 6.6904C0.48043 6.87786 0.734784 6.98317 1 6.98317H11L7.71 10.2718C7.5217 10.4587 7.41538 10.7127 7.41444 10.9779C7.41351 11.2432 7.51802 11.4979 7.705 11.6862C7.89198 11.8744 8.1461 11.9807 8.41146 11.9816C8.67683 11.9825 8.9317 11.8781 9.12 11.6912L13.41 7.393C13.7856 7.01981 13.9978 6.51295 14 5.9836Z" fill="white"/>
</svg>
