<svg xmlns="http://www.w3.org/2000/svg" aria-hidden="true" overflow="hidden" style="position:absolute;width:0;height:0">
  <defs>
    <symbol id="icon-arrow" viewBox="0 0 34 32">
      <path d="M34.462 17.006c-0.012-1.294-0.534-2.532-1.452-3.445l-10.56-10.58c-0.461-0.458-1.085-0.716-1.735-0.716s-1.274 0.257-1.735 0.716c-0.231 0.229-0.414 0.501-0.539 0.801s-0.189 0.621-0.189 0.946c0 0.325 0.064 0.646 0.189 0.946s0.308 0.572 0.539 0.801l8.099 8.070h-24.615c-0.653 0-1.279 0.259-1.741 0.721s-0.721 1.087-0.721 1.74c0 0.653 0.259 1.278 0.721 1.74s1.088 0.721 1.741 0.721h24.615l-8.099 8.095c-0.463 0.46-0.725 1.085-0.727 1.738s0.255 1.28 0.715 1.743 1.086 0.725 1.739 0.727c0.653 0.002 1.281-0.255 1.744-0.715l10.56-10.58c0.924-0.919 1.447-2.166 1.452-3.469z"/>
    </symbol>
    <symbol id="icon-call" viewBox="0 0 32 32">
      <path d="M17.309 1.338A1.336 1.336 0 0 1 18.644.003a13.369 13.369 0 0 1 13.355 13.355 1.336 1.336 0 0 1-2.67 0A10.694 10.694 0 0 0 18.645 2.674a1.336 1.336 0 0 1-1.335-1.335zm1.336 6.677a5.34 5.34 0 0 1 5.342 5.342 1.336 1.336 0 0 0 2.67 0 8.02 8.02 0 0 0-8.013-8.013 1.336 1.336 0 0 0 0 2.67zm12.144 14.343a4.14 4.14 0 0 1 0 5.847l-1.215 1.401C18.636 40.078-7.98 13.467 2.33 2.495l1.536-1.336a4.117 4.117 0 0 1 5.778.053c.041.041 2.516 3.256 2.516 3.256a4.139 4.139 0 0 1-.01 5.718l-1.547 1.945a17.084 17.084 0 0 0 9.257 9.275l1.956-1.556a4.138 4.138 0 0 1 5.717-.008s3.213 2.473 3.255 2.515zm-1.838 1.941s-3.196-2.459-3.237-2.5a1.468 1.468 0 0 0-2.069 0c-.036.037-2.73 2.184-2.73 2.184a1.344 1.344 0 0 1-1.308.203 20.049 20.049 0 0 1-11.78-11.764 1.338 1.338 0 0 1 .194-1.336s2.146-2.695 2.182-2.73a1.468 1.468 0 0 0 0-2.068c-.041-.04-2.5-3.239-2.5-3.239a1.47 1.47 0 0 0-2.017.052L4.15 4.437c-7.535 9.06 15.531 30.847 23.47 23.344l1.217-1.402a1.497 1.497 0 0 0 .113-2.08z"/>
    </symbol>
    <symbol id="icon-checklist-item" viewBox="0 0 32 32">
      <path d="M27.345 4.655C24.29 1.6 20.218 0 16 0S7.709 1.6 4.655 4.655C1.6 7.71 0 11.782 0 16s1.6 8.291 4.655 11.345C7.71 30.4 11.782 32 16 32s8.291-1.6 11.345-4.655C30.4 24.29 32 20.218 32 16s-1.6-8.291-4.655-11.345zm-2.036 20.654c-2.473 2.473-5.818 3.782-9.309 3.782s-6.836-1.309-9.309-3.782C4.218 22.836 2.909 19.491 2.909 16s1.309-6.836 3.782-9.309C9.164 4.218 12.509 2.909 16 2.909s6.836 1.309 9.309 3.782c2.473 2.473 3.782 5.818 3.782 9.309s-1.309 6.836-3.782 9.309zm-3.054-14.691-7.709 7.709-3.345-3.345c-.582-.582-1.455-.582-2.036 0s-.582 1.455 0 2.036l4.364 4.364c.291.291.727.436 1.018.436s.727-.145 1.018-.436l8.727-8.727c.582-.582.582-1.455 0-2.036s-1.455-.582-2.036 0z"/>
    </symbol>
    <symbol id="icon-location" viewBox="0 0 32 32">
      <path d="M15.378 8c-1.108 0-2.19.305-3.111.876s-1.639 1.384-2.063 2.334c-.424.95-.535 1.996-.319 3.004s.749 1.935 1.533 2.662c.783.727 1.781 1.222 2.867 1.423s2.212.098 3.236-.296c1.023-.393 1.898-1.06 2.513-1.915s.944-1.861.944-2.889c0-1.379-.59-2.702-1.64-3.677s-2.475-1.523-3.96-1.523zm0 7.8c-.554 0-1.095-.152-1.556-.438s-.819-.692-1.031-1.167c-.212-.475-.267-.998-.159-1.502s.375-.968.766-1.331c.392-.364.89-.611 1.434-.712s1.106-.049 1.618.148.949.53 1.257.958.472.93.472 1.444c0 .69-.295 1.351-.82 1.838s-1.237.762-1.98.762z"/>
      <path d="M15.378 32c-1.139.006-2.263-.257-3.277-.768s-1.89-1.253-2.554-2.165c-5.155-7.009-7.769-12.278-7.769-15.661 0-3.555 1.433-6.965 3.983-9.479S11.771.001 15.378.001c3.607 0 7.066 1.412 9.617 3.926s3.983 5.924 3.983 9.479c0 3.384-2.615 8.653-7.769 15.661-.664.912-1.539 1.655-2.554 2.165s-2.138.774-3.277.768zm0-29.09c-2.824.003-5.531 1.11-7.527 3.078s-3.12 4.636-3.123 7.42c0 2.68 2.56 7.635 7.208 13.953.395.536.912.972 1.51 1.272a4.31 4.31 0 0 0 3.864 0 4.234 4.234 0 0 0 1.51-1.272c4.647-6.318 7.208-11.274 7.208-13.953-.003-2.783-1.126-5.452-3.123-7.42s-4.704-3.075-7.527-3.078z"/>
    </symbol>
    <symbol id="icon-mail" viewBox="0 0 32 32">
      <path d="M25.333 1.882H6.666c-1.767.002-3.462.679-4.712 1.882S.001 6.598-.001 8.299V23.7c.002 1.701.705 3.332 1.955 4.535s2.944 1.88 4.712 1.882h18.667c1.768-.002 3.462-.679 4.712-1.882S31.998 25.401 32 23.7V8.299c-.002-1.701-.705-3.332-1.955-4.535s-2.944-1.88-4.712-1.882zM6.667 4.449h18.667c.799.002 1.578.233 2.239.665s1.172 1.044 1.468 1.757l-10.211 9.83c-.751.72-1.769 1.125-2.829 1.125s-2.078-.404-2.829-1.125L2.961 6.871c.296-.714.808-1.326 1.468-1.757s1.44-.663 2.239-.665zm18.666 23.102H6.666c-1.061 0-2.078-.406-2.828-1.128S2.666 24.722 2.666 23.7V10.224l8.619 8.291c1.252 1.202 2.947 1.876 4.715 1.876s3.463-.675 4.715-1.876l8.619-8.291V23.7c0 1.021-.421 2.001-1.172 2.723s-1.768 1.128-2.828 1.128z"/>
    </symbol>
    <!-- <symbol id="icon-search" viewBox="0 0 32 32">
      <path d="m31.416 28.595-6.194-6.197c4.635-6.194 3.371-14.971-2.823-19.606S7.428-.579 2.793 5.615c-4.635 6.193-3.371 14.971 2.823 19.606a14.006 14.006 0 0 0 16.783 0l6.197 6.196a1.994 1.994 0 1 0 2.82-2.82v-.003zm-17.357-4.57c-5.504 0-9.967-4.462-9.967-9.967s4.462-9.967 9.967-9.967c5.505 0 9.967 4.462 9.967 9.967-.006 5.502-4.465 9.961-9.967 9.967z"/>
    </symbol> -->

    <symbol id="icon-lamp" viewBox="0 0 25 32">
      <path stroke-linecap="round" stroke-linejoin="round" stroke-miterlimit="10" stroke-width="1.778" d="M9.936 23.462H7.428a6.27 6.27 0 0 0-6.27 6.27v1.379h22.573v-1.379a6.27 6.27 0 0 0-6.27-6.27h-2.508m4.388-10.033a6.897 6.897 0 0 0-13.794 0"/>
      <path stroke-linecap="round" stroke-linejoin="round" stroke-miterlimit="10" stroke-width="1.778" d="M5.547 13.429a6.882 6.882 0 0 0 3.208 5.821 2.517 2.517 0 0 1 1.181 2.123v2.088a2.508 2.508 0 0 0 5.016 0v-2.088c0-.865.451-1.66 1.181-2.123a6.882 6.882 0 0 0 3.208-5.821"/>
      <path stroke-linecap="round" stroke-linejoin="round" stroke-miterlimit="10" stroke-width="1.778" d="M9.936 21.581v1.881a2.508 2.508 0 0 0 5.016 0v-1.881H9.936zM12.444 2.77V.889m-5.33 3.309-.941-1.629M3.212 8.1l-1.629-.941m20.092.941 1.629-.941m-5.531-2.961.941-1.629m-6.27 19.011v-6.27m1.881-1.881-1.881 1.881-1.881-1.881"/>
    </symbol>
    <symbol id="icon-peoplestars" viewBox="0 0 36 32">
      <path stroke-width="1.778" d="M17.545 25.855a.232.232 0 1 0 .464 0 .232.232 0 0 0-.464 0z"/>
      <path stroke-linecap="round" stroke-linejoin="round" stroke-miterlimit="10" stroke-width="1.778" d="M31.771 19.943a3.285 3.285 0 1 1-6.57 0 3.285 3.285 0 0 1 6.57 0zM10.55 31.111H1.615v-1.314c0-2.903 2.55-5.256 5.453-5.256 1.775 0 3.54.879 4.492 2.226m12.434 0c.951-1.347 2.717-2.226 4.492-2.226 2.903 0 5.453 2.353 5.453 5.256v1.314h-8.935M10.353 19.943a3.285 3.285 0 1 1-6.57 0 3.285 3.285 0 0 1 6.57 0zm12.023-2.628a4.599 4.599 0 1 1-9.198 0 4.599 4.599 0 0 1 9.198 0zM17.753.89l-1.421 2.906-3.177.461 2.299 2.241-.543 3.165 2.841-1.494 2.842 1.494-.543-3.165 2.299-2.241-3.177-.461L17.752.89zm11.145 11.076 2.023 1.063-.386-2.252 1.636-1.596-2.262-.329-1.011-2.05-1.012 2.05-2.262.329 1.637 1.596-.386 2.252 2.024-1.063zm-22.337 0 2.023 1.063-.386-2.252 1.637-1.596-2.262-.329-1.011-2.05-1.012 2.05-2.262.329 1.637 1.596-.386 2.252 2.023-1.063z"/>
      <path stroke-linecap="round" stroke-linejoin="round" stroke-miterlimit="10" stroke-width="1.778" d="M25.004 31.111H10.55v-.657a7.226 7.226 0 0 1 7.227-7.227c1.996 0 3.803.809 5.11 2.117a7.197 7.197 0 0 1 2.117 5.11v.657z"/>
      <path stroke-linecap="round" stroke-linejoin="round" stroke-miterlimit="10" stroke-width="1.778" d="M20.295 26.608a4.63 4.63 0 0 1 1.637 1.876"/>
    </symbol>

    <symbol id="icon-medal" viewBox="0 0 23 32">
      <path d="M21.756 10.682c.004-1.726-.404-3.426-1.188-4.956s-1.92-2.843-3.312-3.826C15.864.917 14.259.292 12.578.08S9.191.075 7.606.684c-1.585.608-3.001 1.6-4.127 2.889S1.551 6.41 1.142 8.085C.733 9.76.729 11.51 1.131 13.187s1.197 3.228 2.317 4.523v10.96c0 .627.174 1.242.502 1.773s.796.957 1.351 1.229a3.214 3.214 0 0 0 3.458-.402l2.126-1.732a.643.643 0 0 1 .816 0l2.126 1.732a3.215 3.215 0 0 0 3.458.402 3.287 3.287 0 0 0 1.351-1.229 3.376 3.376 0 0 0 .502-1.773V17.71a10.713 10.713 0 0 0 2.615-7.027zM11.294 2.688c1.552 0 3.069.469 4.359 1.347s2.296 2.127 2.89 3.588c.594 1.461.749 3.068.447 4.619s-1.05 2.975-2.147 4.093c-1.097 1.118-2.495 1.879-4.017 2.188s-3.1.15-4.533-.455c-1.434-.605-2.659-1.63-3.521-2.944s-1.322-2.86-1.322-4.441c.002-2.12.829-4.152 2.3-5.65s3.465-2.342 5.546-2.344zm4.861 26.578a.632.632 0 0 1-.691-.08l-2.126-1.732c-.579-.475-1.3-.734-2.043-.734s-1.464.259-2.043.734l-2.125 1.732a.649.649 0 0 1-.962-.164.67.67 0 0 1-.101-.354v-8.77c1.588.944 3.393 1.442 5.231 1.442s3.643-.497 5.231-1.442v8.77c.001.125-.033.248-.098.354s-.16.19-.272.243z"/>
    </symbol>
    <symbol id="icon-paw-stroke" viewBox="0 0 36 32">
      <path d="M23.916 17.116c-1.609-2.57-4.35-4.105-7.332-4.105s-5.723 1.535-7.332 4.105l-3.878 6.193c-.643 1.028-.94 2.215-.859 3.432s.534 2.352 1.309 3.28c.775.928 1.799 1.562 2.962 1.834s2.355.156 3.447-.336l.071-.032a10.604 10.604 0 0 1 8.63.032 5.376 5.376 0 0 0 3.446.336c1.163-.272 2.187-.906 2.962-1.834s1.228-2.062 1.31-3.28a5.71 5.71 0 0 0-.858-3.433l-3.878-6.193zm1.834 11.512c-.986 1.181-2.582 1.554-3.971.929a12.657 12.657 0 0 0-10.387-.001l-.047.021c-1.378.597-2.95.219-3.926-.949a3.545 3.545 0 0 1-.279-4.16l3.878-6.193c1.222-1.952 3.303-3.117 5.567-3.117s4.345 1.165 5.567 3.117l3.878 6.193a3.543 3.543 0 0 1-.279 4.16zM6.419 17.108c1.154-.454 2.03-1.405 2.468-2.68.416-1.213.382-2.582-.097-3.856S7.439 8.26 6.336 7.646c-1.159-.645-2.433-.75-3.585-.296-2.317.912-3.38 3.843-2.37 6.536.807 2.143 2.69 3.496 4.593 3.496.494.001.984-.092 1.444-.274zm-4.081-3.993c-.595-1.587-.072-3.274 1.167-3.762.224-.088.462-.133.702-.132.373 0 .758.104 1.128.311.666.371 1.199 1.014 1.499 1.812s.327 1.64.075 2.373c-.231.671-.672 1.164-1.242 1.389h-.001c-1.237.488-2.73-.405-3.328-1.99zm11.606-.859c2.897 0 5.253-2.749 5.253-6.127S16.84 0 13.944 0 8.691 2.749 8.691 6.129s2.356 6.127 5.253 6.127zm0-10.11c1.741 0 3.157 1.787 3.157 3.983s-1.416 3.981-3.157 3.981-3.156-1.786-3.156-3.981c0-2.196 1.416-3.983 3.156-3.983zm9.072 11.615a4.21 4.21 0 0 0 1.353.224c2.112 0 4.171-1.574 4.957-3.993.452-1.392.423-2.865-.084-4.146-.53-1.341-1.512-2.314-2.765-2.741s-2.61-.249-3.818.501c-1.154.716-2.039 1.877-2.491 3.269-.954 2.938.324 6.027 2.848 6.886zm-.859-6.209c.295-.909.859-1.658 1.588-2.11.674-.418 1.41-.525 2.071-.3s1.187.761 1.483 1.509c.32.808.333 1.754.038 2.664-.589 1.815-2.231 2.896-3.659 2.41-1.427-.486-2.11-2.358-1.52-4.172zm11.922 5.494-.001-.001c-1.998-1.511-4.985-.856-6.66 1.46-1.673 2.317-1.412 5.433.583 6.945a4.04 4.04 0 0 0 2.467.815c1.533 0 3.128-.801 4.194-2.274 1.673-2.317 1.412-5.433-.583-6.945zm-1.102 5.669c-.989 1.367-2.662 1.82-3.729 1.011-1.066-.808-1.131-2.578-.145-3.944.656-.907 1.613-1.411 2.496-1.411.446 0 .874.129 1.233.401 1.066.809 1.13 2.578.145 3.943z"/>
    </symbol>
  </defs>
</svg>
