<svg width="138" height="21" viewBox="0 0 138 21" fill="none" xmlns="http://www.w3.org/2000/svg">
<path d="M0.643466 20V1.09091H8.10369C9.53788 1.09091 10.7597 1.36482 11.7692 1.91264C12.7786 2.45431 13.5481 3.20833 14.0774 4.17471C14.6129 5.13494 14.8807 6.2429 14.8807 7.49858C14.8807 8.75426 14.6098 9.86222 14.0682 10.8224C13.5265 11.7827 12.7417 12.5305 11.7138 13.0661C10.692 13.6016 9.45478 13.8693 8.00213 13.8693H3.24716V10.6655H7.35582C8.12524 10.6655 8.75923 10.5331 9.25781 10.2685C9.76255 9.99763 10.138 9.62524 10.3842 9.15128C10.6366 8.67116 10.7628 8.12026 10.7628 7.49858C10.7628 6.87074 10.6366 6.32292 10.3842 5.85511C10.138 5.38115 9.76255 5.01491 9.25781 4.75639C8.75308 4.49171 8.11293 4.35938 7.33736 4.35938H4.64134V20H0.643466ZM23.6381 20.277C22.1793 20.277 20.9237 19.9815 19.8711 19.3906C18.8247 18.7936 18.0183 17.9503 17.4521 16.8608C16.8858 15.7652 16.6026 14.4695 16.6026 12.9737C16.6026 11.5149 16.8858 10.2346 17.4521 9.13281C18.0183 8.03101 18.8155 7.17235 19.8434 6.55682C20.8775 5.94129 22.0901 5.63352 23.4812 5.63352C24.4168 5.63352 25.2878 5.78433 26.0941 6.08594C26.9066 6.38139 27.6145 6.82765 28.2177 7.42472C28.8271 8.02178 29.301 8.77273 29.6396 9.67756C29.9781 10.5762 30.1474 11.6288 30.1474 12.8352V13.9155H18.1722V11.478H26.445C26.445 10.9117 26.3219 10.41 26.0756 9.97301C25.8294 9.53598 25.4878 9.19437 25.0508 8.94815C24.6199 8.69579 24.1183 8.5696 23.5458 8.5696C22.9487 8.5696 22.4194 8.7081 21.9577 8.98508C21.5022 9.25592 21.1452 9.62216 20.8867 10.0838C20.6282 10.5393 20.4959 11.0471 20.4897 11.6072V13.9247C20.4897 14.6264 20.619 15.2327 20.8775 15.7436C21.1422 16.2545 21.5146 16.6484 21.9947 16.9254C22.4748 17.2024 23.0442 17.3409 23.7028 17.3409C24.1398 17.3409 24.5399 17.2794 24.9031 17.1562C25.2662 17.0331 25.5771 16.8485 25.8356 16.6023C26.0941 16.3561 26.2911 16.0545 26.4265 15.6974L30.0643 15.9375C29.8796 16.8116 29.5011 17.5748 28.9286 18.2273C28.3623 18.8736 27.6299 19.3783 26.7312 19.7415C25.8387 20.0985 24.8076 20.277 23.6381 20.277ZM40.2575 5.81818V8.77273H31.717V5.81818H40.2575ZM33.6559 2.42045H37.5891V15.642C37.5891 16.0052 37.6445 16.2884 37.7553 16.4915C37.8661 16.6884 38.02 16.8269 38.217 16.907C38.4201 16.987 38.654 17.027 38.9187 17.027C39.1033 17.027 39.288 17.0116 39.4727 16.9808C39.6573 16.9439 39.7989 16.9162 39.8974 16.8977L40.516 19.8246C40.319 19.8861 40.042 19.9569 39.685 20.0369C39.328 20.1231 38.8941 20.1754 38.3832 20.1939C37.4353 20.2308 36.6043 20.1046 35.8903 19.8153C35.1824 19.526 34.6315 19.0767 34.2376 18.4673C33.8436 17.858 33.6497 17.0885 33.6559 16.1591V2.42045ZM60.8954 6.52912C60.8216 5.78433 60.5046 5.20573 59.9444 4.79332C59.3843 4.38092 58.6241 4.17471 57.6639 4.17471C57.0114 4.17471 56.4605 4.26704 56.0112 4.4517C55.5618 4.63021 55.2172 4.8795 54.9771 5.19957C54.7432 5.51965 54.6262 5.88281 54.6262 6.28906C54.6139 6.6276 54.6847 6.92306 54.8386 7.17543C54.9986 7.42779 55.2172 7.64631 55.4941 7.83097C55.7711 8.00947 56.0912 8.16643 56.4544 8.30185C56.8175 8.43111 57.2053 8.5419 57.6177 8.63423L59.3166 9.04048C60.1414 9.22514 60.8985 9.47135 61.5879 9.77912C62.2773 10.0869 62.8743 10.4654 63.3791 10.9148C63.8838 11.3641 64.2747 11.8935 64.5517 12.5028C64.8348 13.1122 64.9795 13.8108 64.9856 14.5987C64.9795 15.7559 64.684 16.7592 64.0993 17.6087C63.5207 18.4519 62.6835 19.1075 61.5879 19.5753C60.4984 20.0369 59.1842 20.2678 57.6454 20.2678C56.1189 20.2678 54.7894 20.0339 53.6568 19.5661C52.5304 19.0982 51.6502 18.4058 51.0162 17.4886C50.3883 16.5653 50.059 15.4235 50.0282 14.0632H53.8968C53.9399 14.6972 54.1215 15.2266 54.4416 15.6513C54.7678 16.0698 55.2018 16.3868 55.7434 16.6023C56.2913 16.8116 56.9099 16.9162 57.5993 16.9162C58.2763 16.9162 58.8642 16.8177 59.3627 16.6207C59.8675 16.4238 60.2583 16.1499 60.5353 15.799C60.8123 15.4482 60.9508 15.045 60.9508 14.5895C60.9508 14.1648 60.8246 13.8078 60.5723 13.5185C60.3261 13.2292 59.9629 12.983 59.4828 12.7798C59.0088 12.5767 58.4271 12.392 57.7377 12.2259L55.6788 11.7088C54.0846 11.321 52.8258 10.7147 51.9025 9.88991C50.9792 9.0651 50.5207 7.95407 50.5268 6.55682C50.5207 5.41193 50.8253 4.41169 51.4409 3.55611C52.0626 2.70052 52.9151 2.03267 53.9984 1.55256C55.0817 1.07244 56.3128 0.832386 57.6916 0.832386C59.095 0.832386 60.3199 1.07244 61.3663 1.55256C62.4189 2.03267 63.2375 2.70052 63.8223 3.55611C64.407 4.41169 64.7086 5.4027 64.7271 6.52912H60.8954ZM74.0085 20.277C72.5559 20.277 71.3063 19.9692 70.2599 19.3537C69.2197 18.732 68.4195 17.8703 67.8594 16.7685C67.3054 15.6667 67.0284 14.3987 67.0284 12.9645C67.0284 11.5118 67.3085 10.2377 67.8686 9.14204C68.4349 8.04025 69.2382 7.18158 70.2784 6.56605C71.3187 5.94437 72.5559 5.63352 73.9901 5.63352C75.2273 5.63352 76.3106 5.85819 77.2401 6.30753C78.1695 6.75686 78.9051 7.38778 79.4467 8.20028C79.9884 9.01278 80.2869 9.96686 80.3423 11.0625H76.6307C76.526 10.3546 76.2491 9.78527 75.7997 9.3544C75.3565 8.91738 74.7749 8.69886 74.0547 8.69886C73.4453 8.69886 72.9129 8.86506 72.4574 9.19744C72.008 9.52367 71.6572 10.0007 71.4048 10.6286C71.1525 11.2564 71.0263 12.0166 71.0263 12.9091C71.0263 13.8139 71.1494 14.5833 71.3956 15.2173C71.648 15.8513 72.0019 16.3345 72.4574 16.6669C72.9129 16.9993 73.4453 17.1655 74.0547 17.1655C74.504 17.1655 74.9072 17.0732 75.2642 16.8885C75.6274 16.7038 75.9259 16.4361 76.1598 16.0852C76.3999 15.7282 76.5568 15.3004 76.6307 14.8018H80.3423C80.2808 15.8852 79.9853 16.8393 79.456 17.6641C78.9328 18.4827 78.2095 19.1229 77.2862 19.5845C76.3629 20.0462 75.2704 20.277 74.0085 20.277ZM82.8606 20V5.81818H86.6738V8.29261H86.8216C87.0801 7.4124 87.514 6.74763 88.1234 6.2983C88.7328 5.8428 89.4345 5.61506 90.2285 5.61506C90.4255 5.61506 90.6378 5.62737 90.8656 5.65199C91.0933 5.67661 91.2934 5.71046 91.4657 5.75355V9.24361C91.2811 9.18821 91.0256 9.13897 90.6994 9.09588C90.3732 9.05279 90.0746 9.03125 89.8038 9.03125C89.2252 9.03125 88.7082 9.15743 88.2527 9.4098C87.8033 9.65601 87.4463 10.0007 87.1816 10.4439C86.9231 10.8871 86.7939 11.398 86.7939 11.9766V20H82.8606ZM102.594 13.9616V5.81818H106.527V20H102.751V17.424H102.603C102.283 18.255 101.75 18.9228 101.006 19.4276C100.267 19.9323 99.3653 20.1847 98.3004 20.1847C97.3525 20.1847 96.5185 19.9692 95.7983 19.5384C95.0781 19.1075 94.5149 18.495 94.1087 17.701C93.7086 16.907 93.5054 15.956 93.4993 14.848V5.81818H97.4325V14.1463C97.4387 14.9834 97.6634 15.6451 98.1065 16.1314C98.5497 16.6177 99.1437 16.8608 99.8885 16.8608C100.362 16.8608 100.806 16.7531 101.218 16.5376C101.63 16.3161 101.963 15.9898 102.215 15.5589C102.474 15.1281 102.6 14.5956 102.594 13.9616ZM109.599 20V17.6548L116.542 9.05895V8.95739H109.839V5.81818H121.279V8.37571L114.76 16.7592V16.8608H121.519V20H109.599ZM130.583 20.277C129.125 20.277 127.869 19.9815 126.816 19.3906C125.77 18.7936 124.964 17.9503 124.397 16.8608C123.831 15.7652 123.548 14.4695 123.548 12.9737C123.548 11.5149 123.831 10.2346 124.397 9.13281C124.964 8.03101 125.761 7.17235 126.789 6.55682C127.823 5.94129 129.035 5.63352 130.426 5.63352C131.362 5.63352 132.233 5.78433 133.039 6.08594C133.852 6.38139 134.56 6.82765 135.163 7.42472C135.772 8.02178 136.246 8.77273 136.585 9.67756C136.923 10.5762 137.093 11.6288 137.093 12.8352V13.9155H125.118V11.478H133.39C133.39 10.9117 133.267 10.41 133.021 9.97301C132.775 9.53598 132.433 9.19437 131.996 8.94815C131.565 8.69579 131.064 8.5696 130.491 8.5696C129.894 8.5696 129.365 8.7081 128.903 8.98508C128.448 9.25592 128.091 9.62216 127.832 10.0838C127.574 10.5393 127.441 11.0471 127.435 11.6072V13.9247C127.435 14.6264 127.564 15.2327 127.823 15.7436C128.087 16.2545 128.46 16.6484 128.94 16.9254C129.42 17.2024 129.989 17.3409 130.648 17.3409C131.085 17.3409 131.485 17.2794 131.848 17.1562C132.212 17.0331 132.522 16.8485 132.781 16.6023C133.039 16.3561 133.236 16.0545 133.372 15.6974L137.01 15.9375C136.825 16.8116 136.446 17.5748 135.874 18.2273C135.308 18.8736 134.575 19.3783 133.676 19.7415C132.784 20.0985 131.753 20.277 130.583 20.277Z" fill="black"/>
<path d="M45.1186 20.2401C44.5092 20.2401 43.986 20.0246 43.549 19.5938C43.1181 19.1567 42.9027 18.6335 42.9027 18.0241C42.9027 17.4209 43.1181 16.9039 43.549 16.473C43.986 16.0421 44.5092 15.8267 45.1186 15.8267C45.7095 15.8267 46.2266 16.0421 46.6697 16.473C47.1129 16.9039 47.3345 17.4209 47.3345 18.0241C47.3345 18.4304 47.2299 18.8028 47.0206 19.1413C46.8175 19.4737 46.5497 19.7415 46.2173 19.9446C45.8849 20.1416 45.5187 20.2401 45.1186 20.2401Z" fill="#FF5B2E"/>
</svg>
